# xmcd
#
# Track frame offsets: 
#        200
#        13702
#        26907
#        40907
#        54210
#        68310
#        80652
#        94665
#        108027
#        121535
#        134947
#        147765
#        162572
#        175510
#        189262
#        202807
#        214310
#        227210
#        239810
#        252900
#        265705
#
# Disc length: 3716 seconds
#
# Revision: 5
# Processed by: cddbd v1.5.2PL0 Copyright (c) Steve Scherf et al.
# Submitted via: ExactAudioCopyFreeDBPlugin 1.0
#
DISCID=1d0e8215
DTITLE=Various Artist - Echoes of the Ozarks, Vol. 2
DYEAR=1995
DGENRE=Old Time Country Music
TTITLE0=Dr. Smith's Champion Hoss Hair Pullers - In the Garden Where t
TTITLE0=he Irish Potatoes Grow
TTITLE1=Reeves White County Ramblers - Flying Engine
TTITLE2=Birkhead and Lane - Robinson County
TTITLE3=Grinnell Giggers - Duck Shoes Rag
TTITLE4=A.E. Ward and His Plow Boys - Going to Leave Old Arkansas
TTITLE5=Hiter Covin - Rabbit Up a Gum Stump
TTITLE6=Fiddlin' Bob Larkan and His Music Makers - Saturday Night Waltz
TTITLE7=Reeves White County Ramblers - Rattler Treed a Possum
TTITLE8=Arkansas Barefoot Boys - Eighth of January
TTITLE9=Fiddlin' Bob Larkan and His Music Makers - Kansas City Reel
TTITLE10=Reeves White County Ramblers - Arkansas Traveler
TTITLE11=A.E. Ward and His Plow Boys - The Old Dinner Bell
TTITLE12=Grinnell Giggers - Ruth's Rag
TTITLE13=Reeves White County Ramblers - Ten Cent Piece
TTITLE14=Fiddlin' Bob Larkan and His Music Makers - Higher Up the Monkey
TTITLE14=Climbs
TTITLE15=Hiter Covin - Indian War Whoop
TTITLE16=Reeves White County Ramblers - Drunkard's Hiccoughs
TTITLE17=Fiddlin' Bob Larkan Faminly - Prairie County Waltz
TTITLE18=Reeves White County Ramblers - Shortenin' Bread
TTITLE19=Grinnell Giggers - Plow Boy Hop
TTITLE20=Dr. Smith's Champion Hoss Hair Pullers - Going Down the River
EXTD=
EXTT0=
EXTT1=
EXTT2=
EXTT3=
EXTT4=
EXTT5=
EXTT6=
EXTT7=
EXTT8=
EXTT9=
EXTT10=
EXTT11=
EXTT12=
EXTT13=
EXTT14=
EXTT15=
EXTT16=
EXTT17=
EXTT18=
EXTT19=
EXTT20=
PLAYORDER=
